<svg xmlns="http://www.w3.org/2000/svg" width="144" height="37.68" viewBox="0 0 144 37.68"><path d="M16.89 31a.83.83 0 0 1-.4-.1l-10-5.54a.83.83 0 1 1 .81-1.45l10 5.54a.83.83 0 0 1-.4 1.56z" fill="#1699cb"/><path d="M16.89 31a.83.83 0 0 1-.41-1.55l9.77-5.5a.83.83 0 0 1 .81 1.45l-9.77 5.5a.83.83 0 0 1-.4.1zM7.11 14.17a.83.83 0 0 1-.42-1.54l9.78-5.81a.83.83 0 0 1 .85 1.43l-9.79 5.81a.83.83 0 0 1-.42.11z" fill="#1699cb"/><path d="M24 12.31a.83.83 0 0 1-.4-.1l-7.11-3.95a.83.83 0 0 1 .8-1.45l7.11 3.94a.83.83 0 0 1-.4 1.56z" fill="#1699cb"/><path d="M6.84 25.29a.83.83 0 0 1-.84-.83v-11a.83.83 0 1 1 1.66 0v11a.83.83 0 0 1-.82.83zM26.66 25.46a.83.83 0 0 1-.83-.83v-11a.83.83 0 0 1 1.66 0v11a.83.83 0 0 1-.83.83zM16.87 37.68a.83.83 0 0 1-.83-.83V.83a.83.83 0 1 1 1.66 0v36a.83.83 0 0 1-.83.85z" fill="#2c4055"/><path d="M7.12 25.3a.83.83 0 0 1-.42-1.55L32.41 8.91a.83.83 0 1 1 .83 1.44L7.54 25.19a.82.82 0 0 1-.42.11z" fill="#2c4055"/><path d="M32.52 28.85a.82.82 0 0 1-.41-.11L.41 10.43A.83.83 0 0 1 1.24 9l31.7 18.3a.83.83 0 0 1-.42 1.55z" fill="#2c4055"/><path d="M2.28 11.38a.83.83 0 0 1-.42-1.55l14.59-8.5a.83.83 0 0 1 .84 1.43L2.7 11.27a.83.83 0 0 1-.42.11z" fill="#2c4055"/><path d="M2.28 27.93a.83.83 0 0 1-.83-.83V10.55a.83.83 0 1 1 1.66 0V27.1a.83.83 0 0 1-.83.83zM31.14 11a.83.83 0 0 1-.41-.11L16.46 2.76a.83.83 0 1 1 .82-1.44l14.27 8.15a.83.83 0 0 1-.41 1.53z" fill="#2c4055"/><path d="M31.4 28.1a.83.83 0 0 1-.83-.83V10.4a.83.83 0 1 1 1.66 0v16.87a.83.83 0 0 1-.83.83z" fill="#2c4055"/><path d="M21.79 33.67a.83.83 0 0 1-.42-1.55l9.31-5.42a.83.83 0 0 1 .84 1.43l-9.32 5.42a.82.82 0 0 1-.41.12zM16.87 36.3a.83.83 0 0 1-.41-.11L1.87 27.82a.83.83 0 0 1 .83-1.44l14.59 8.36a.83.83 0 0 1-.41 1.55zM22.36 23a.83.83 0 0 1-.83-.83v-6.44a.83.83 0 0 1 1.66 0v6.42a.83.83 0 0 1-.83.85z" fill="#2c4055"/><path d="M22.36 16.56a.83.83 0 0 1-.41-.11l-5.47-3.12a.83.83 0 1 1 .82-1.44L22.77 15a.83.83 0 0 1-.41 1.55z" fill="#2c4055"/><path d="M14 15a.83.83 0 0 1-.4-1.56l2.88-1.56a.83.83 0 0 1 .79 1.46l-2.88 1.56a.83.83 0 0 1-.39.1zM16.89 26.18a.83.83 0 0 1-.42-1.55l5.47-3.2a.83.83 0 1 1 .84 1.43l-5.47 3.2a.83.83 0 0 1-.42.12z" fill="#2c4055"/><path d="M16.89 26.18a.83.83 0 0 1-.43-.12L11 22.72a.83.83 0 0 1 .86-1.42l5.5 3.34a.83.83 0 0 1-.43 1.54z" fill="#2c4055"/><path d="M11.3 23a.83.83 0 0 1-.83-.83v-6.3a.83.83 0 1 1 1.66 0v6.3a.83.83 0 0 1-.83.83z" fill="#2c4055"/><path d="M26.61 25.49a.82.82 0 0 1-.42-.11L6.69 14.06a.83.83 0 1 1 .83-1.43L27 23.95a.83.83 0 0 1-.42 1.55z" fill="#1699cb"/><path d="M1.5 28.32a.83.83 0 0 1-.39-1.56l2.82-1.48a.83.83 0 0 1 .77 1.47l-2.81 1.48a.82.82 0 0 1-.39.09zM52.83 29.25c-4 0-6-2.26-6-3.45a1.42 1.42 0 0 1 1.41-1.38 1.31 1.31 0 0 1 1.07.61 4.17 4.17 0 0 0 3.54 1.63c2.67 0 3.25-1.82 3.25-2.6a3.2 3.2 0 0 0-1.84-2.72 45.85 45.85 0 0 0-3.66-1.92 4.83 4.83 0 0 1-3.11-4.37c0-2.35 1.89-4.61 5.24-4.61S58 12 58 13.18a1.42 1.42 0 0 1-1.36 1.41A1.54 1.54 0 0 1 55.5 14a3.54 3.54 0 0 0-2.79-1.12 2.24 2.24 0 0 0-2.5 2.12 2.49 2.49 0 0 0 1.53 2.14c1 .53 2.67 1.31 3.79 1.92C58 20.34 59 22.19 59 24c0 2.58-2.24 5.25-6.17 5.25zM63.36 29A1.29 1.29 0 0 1 62 27.77v-.07c.1-1.89.12-4 .12-6.09v-6.58c0-3 0-4.59 4.78-4.59h1.36c3.74.29 5.54 2.89 5.54 5.56a5.73 5.73 0 0 1-5.27 5.78 13.78 13.78 0 0 1-1.75.12 7.76 7.76 0 0 1-1.78-.24.47.47 0 0 0-.17 0c-.12 0-.15.07-.15.27 0 1.5.07 3.23.07 4.83v.95A1.31 1.31 0 0 1 63.36 29zm3.42-16c-1.94 0-2.16.27-2.16 2.52v3.1c0 .51.49.68 2 .68.46 0 1 0 1.48-.07a3.37 3.37 0 0 0 3-3.4c0-1.46-.95-2.82-3.13-2.82.03-.01-.6-.01-1.19-.01zM81.51 21.78a1 1 0 0 0-.24-.8 792.98 792.98 0 0 0-5.39-8 1.55 1.55 0 0 1-.29-.85 1.56 1.56 0 0 1 1.53-1.48 1.32 1.32 0 0 1 1.17.73c1 1.77 2.72 4.3 4.42 6.82a.35.35 0 0 0 .29.19.32.32 0 0 0 .29-.17 69.51 69.51 0 0 0 4.39-6.87 1.19 1.19 0 0 1 1.09-.68 1.68 1.68 0 0 1 1.63 1.5 1.33 1.33 0 0 1-.22.7c-1.09 1.75-3.81 5.8-5.39 8a1.24 1.24 0 0 0-.29.95v5.87A1.38 1.38 0 0 1 83 29a1.41 1.41 0 0 1-1.53-1.43zM108.45 29c-1.09 0-2.18-.8-2.62-2.57a192.8 192.8 0 0 1-2.16-12.11c0-.32-.12-.44-.19-.44s-.15.17-.19.44c-.32 2.21-1.48 9.1-2.26 12.09a3 3 0 0 1-2.8 2.59 2.86 2.86 0 0 1-2.69-2.57c-2.6-12.25-2.94-14.09-2.94-14.53a1.36 1.36 0 0 1 1.48-1.29 1.38 1.38 0 0 1 1.46 1.07c2.43 14 2.48 14.1 2.82 14.1s.36-.27.44-.63c.46-2 1.77-9.37 2.4-12.6a2.19 2.19 0 0 1 2.23-1.89 2.32 2.32 0 0 1 2.35 1.8c.53 2.77 1.75 9.76 2.26 12.57.07.41.19.56.32.56.34 0 .49 0 3.23-13.93a1.32 1.32 0 0 1 1.36-1 1.42 1.42 0 0 1 1.53 1.26c0 .46-1.29 6.24-3.33 14.68a2.93 2.93 0 0 1-2.7 2.4zM122.55 13.06c-2.43 0-2.94 0-3 1.09v3.18c0 .49 0 .49 3 .49h2.72a1.22 1.22 0 0 1 1.36 1.29 1.29 1.29 0 0 1-1.29 1.38h-.12c-.61 0-1.53-.07-2.45-.07-3 0-3.25 0-3.25.53 0 3.62 0 4.17.07 4.59.12 1.12.51 1.17 3.93 1.17H127a1.23 1.23 0 0 1 1.31 1.24 1.41 1.41 0 0 1-1.53 1.36h-6.24c-2.23-.17-3.62-1-3.71-3.11v-4.78c0-3 0-6.26.07-7.79 0-1.94 1.31-3 3.28-3.06h6.26a1.29 1.29 0 0 1 1.36 1.29 1.34 1.34 0 0 1-1.43 1.31s-2.17-.11-3.82-.11zM137.91 29.23h-1.55c-2.35 0-5.15-.1-5.24-3.13v-4.81c0-3 0-6.26.07-7.81.07-3 2.77-3.08 4.83-3.08h1.41c4 .27 5.53 2.4 5.53 4.44a3.82 3.82 0 0 1-2.96 3.98c-.24 0-.39.1-.39.15s.1.07.36.1a4.31 4.31 0 0 1 4 4.54c.03 2.58-1.87 5.39-6.06 5.62zm3.3-5.9c0-1.43-1-2.84-3.2-3-.61 0-1.24-.07-1.84-.07-2.26 0-2.48.07-2.48.56 0 3 0 4.15.07 4.81.12.9.36 1.19 2.62 1.19h1.63a3.4 3.4 0 0 0 3.2-3.49zm-5.34-10.39c-1.55 0-2 .19-2.11 1.12v3.37c0 .51.34.51 1.94.51h1.65a2.91 2.91 0 0 0 2.86-2.74c0-1.14-.9-2.21-3-2.21-.08.01-.71-.05-1.34-.05z" fill="#2c4055"/></svg>